<?xml version="1.0" standalone="no"?>
<!DOCTYPE svg PUBLIC "-//W3C//DTD SVG 20010904//EN"
 "http://www.w3.org/TR/2001/REC-SVG-20010904/DTD/svg10.dtd">
<svg version="1.0" xmlns="http://www.w3.org/2000/svg"
 width="300.000000pt" height="300.000000pt" viewBox="0 0 300.000000 300.000000"
 preserveAspectRatio="xMidYMid meet">
<metadata>
Created by potrace 1.10, written by Peter Selinger 2001-2011
</metadata>
<g transform="translate(0.000000,300.000000) scale(0.100000,-0.100000)"
fill="#000000" stroke="none">
<path d="M1565 2240 c-11 -5 -42 -9 -68 -9 -45 -1 -84 -20 -70 -35 4 -3 3 -6
-2 -6 -4 0 -13 7 -19 16 -9 12 -17 13 -41 4 -16 -6 -35 -20 -42 -31 -11 -15
-18 -17 -33 -9 -13 7 -21 7 -25 0 -3 -5 -15 -10 -25 -10 -24 0 -42 -32 -33
-57 5 -15 3 -16 -8 -5 -35 33 -95 2 -105 -54 -3 -16 -9 -33 -15 -39 -17 -17
-9 -25 16 -19 25 6 35 -9 15 -21 -6 -4 -8 -11 -4 -16 4 -6 11 -5 20 2 25 21
42 -6 19 -31 -27 -30 -50 -25 -84 19 -38 48 -39 64 -4 89 16 11 24 24 20 29
-5 4 -14 0 -21 -9 -7 -10 -16 -15 -19 -12 -8 9 -29 -36 -24 -51 4 -8 -1 -11
-12 -8 -10 2 -30 -6 -46 -19 -25 -22 -27 -28 -21 -71 5 -34 11 -45 22 -40 17
6 19 -28 2 -45 -19 -19 -31 -14 -25 9 3 13 1 19 -6 16 -7 -2 -10 -13 -9 -23 3
-17 1 -16 -18 4 -26 27 -37 25 -64 -11 -17 -23 -18 -32 -9 -56 9 -26 8 -30
-11 -36 -11 -4 -24 -7 -28 -6 -4 0 -10 -9 -13 -20 -7 -22 18 -69 38 -69 7 0
18 -9 25 -20 16 -26 6 -46 -14 -29 -8 6 -14 8 -14 3 0 -4 -5 -3 -12 4 -28 28
-75 1 -63 -38 3 -11 14 -20 23 -21 13 0 11 -3 -5 -9 -34 -14 -46 -45 -32 -84
10 -27 9 -37 -3 -54 -17 -25 -12 -81 8 -89 11 -4 11 -7 -1 -19 -14 -15 -10
-44 6 -44 6 0 5 -9 -1 -20 -7 -14 -8 -26 0 -39 5 -11 10 -31 10 -45 0 -25 14
-33 45 -26 5 1 19 3 30 4 50 7 84 19 89 32 14 36 -29 63 -61 38 -16 -12 -15
-13 12 -11 21 1 30 -3 30 -13 0 -16 -106 -42 -125 -30 -15 9 -3 35 23 48 21
11 20 11 -8 9 -41 -3 -48 29 -8 37 99 19 103 19 103 -3 0 -11 5 -21 10 -21 11
0 14 33 3 44 -4 4 -8 39 -8 78 0 41 -5 73 -11 75 -6 2 -8 -10 -6 -34 6 -45
-15 -63 -70 -63 -48 0 -77 36 -60 75 10 21 18 24 55 23 24 0 53 2 64 6 25 8
46 51 37 78 -3 10 2 35 11 54 9 20 14 42 11 50 -3 8 -1 14 5 14 7 0 9 12 7 29
-3 22 0 31 12 34 18 5 60 78 60 105 0 10 -5 23 -11 29 -7 7 -8 19 -4 30 5 10
7 22 6 27 -1 5 6 5 16 1 45 -20 93 3 93 45 0 17 4 20 19 15 22 -7 61 25 61 50
0 8 6 12 13 9 17 -6 67 33 67 53 0 13 3 13 15 3 13 -10 19 -10 33 2 9 9 22 13
29 11 6 -2 16 4 22 15 7 13 19 18 43 16 18 -1 39 2 46 8 7 6 31 12 55 14 45 4
92 10 105 14 4 1 11 2 16 1 26 -5 36 73 10 83 -14 5 -14 7 0 22 21 21 20 41
-3 54 -23 12 -29 12 -56 0z m53 -32 c3 -13 -3 -18 -20 -18 -22 0 -22 -1 6 -23
48 -39 14 -89 -50 -73 -14 4 -24 2 -24 -4 0 -5 -16 -10 -35 -10 -33 0 -35 2
-41 40 -4 22 -11 37 -16 34 -6 -4 -7 3 -3 17 10 33 18 39 50 42 33 2 47 -22
16 -30 -12 -3 -21 -10 -21 -15 0 -6 7 -8 15 -5 22 9 29 -13 9 -28 -11 -8 -17
-15 -14 -16 25 -5 50 -4 50 3 0 4 12 8 28 8 l27 1 -27 15 c-49 26 -28 88 27
81 11 -1 21 -10 23 -19z m-203 -43 c0 -11 6 -26 13 -33 30 -33 3 -76 -45 -70
-21 2 -33 12 -46 41 -18 35 -18 39 -2 63 21 32 80 32 80 -1z m-105 -35 c6 -11
8 -25 4 -32 -4 -6 4 -19 17 -29 19 -14 22 -20 11 -31 -10 -10 -17 -10 -32 0
-26 16 -29 15 -23 -8 4 -14 0 -20 -11 -20 -16 0 -56 75 -56 105 0 35 73 47 90
15z m-110 -50 c48 -48 45 -103 -6 -116 -21 -5 -32 -1 -55 24 -40 43 -38 75 6
100 27 16 32 15 55 -8z m-154 -152 c38 -36 42 -53 17 -80 -22 -25 -46 -23 -82
8 -34 29 -39 58 -14 86 23 26 40 23 79 -14z m-151 -128 c4 -6 1 -17 -5 -25
-15 -18 1 -20 18 -3 18 18 62 -6 62 -35 0 -31 -30 -59 -50 -47 -12 7 -12 12
-2 22 24 24 11 29 -24 9 -20 -12 -39 -19 -42 -16 -3 3 1 5 8 5 10 0 9 5 -3 18
-20 21 -21 36 -7 63 12 21 35 25 45 9z m20 -120 c23 -9 25 -13 15 -25 -7 -8
-19 -15 -27 -15 -10 0 -13 -6 -8 -17 11 -31 10 -37 -7 -41 -25 -5 -103 70 -95
91 7 20 79 23 122 7z m-59 -125 c16 22 34 18 34 -7 0 -48 -13 -54 -77 -38 -47
12 -58 19 -59 36 -1 21 0 21 45 7 40 -12 47 -12 57 2z m-1 -86 c15 -15 17 -24
9 -46 -8 -25 -15 -28 -60 -31 -44 -3 -52 0 -63 21 -36 68 54 112 114 56z m15
-224 c0 -14 -39 -25 -101 -28 -44 -2 -47 25 -4 34 58 13 105 10 105 -6z"/>
<path d="M990 1907 c0 -17 20 -37 37 -37 7 0 13 5 13 10 0 6 -7 10 -16 10 -10
0 -14 6 -10 15 3 9 0 15 -9 15 -8 0 -15 -6 -15 -13z"/>
<path d="M1687 2239 c-13 -8 -17 -24 -17 -78 0 -74 13 -98 50 -88 11 3 23 1
26 -4 11 -18 51 -9 62 14 10 21 11 20 11 -10 1 -24 5 -31 19 -29 9 2 28 -5 42
-16 15 -12 33 -17 47 -13 16 4 23 1 23 -9 0 -7 14 -19 31 -27 18 -7 42 -23 56
-37 13 -13 30 -21 38 -18 9 3 15 -1 15 -9 0 -8 8 -15 18 -15 23 0 42 -19 42
-42 0 -10 7 -18 15 -18 8 0 15 -6 15 -13 0 -20 43 -57 67 -57 11 0 34 12 51
28 17 15 37 32 45 39 9 7 13 21 10 33 -7 26 -50 60 -68 54 -10 -4 -13 2 -12
23 2 26 -1 28 -31 26 -29 -1 -31 1 -20 15 10 12 10 16 1 19 -7 3 -13 11 -13
19 0 17 -12 18 -29 2 -11 -11 -13 -10 -8 3 8 23 -33 59 -66 59 -15 0 -27 -5
-27 -11 0 -14 -29 -43 -46 -45 -18 -3 -18 -1 7 48 19 37 19 42 5 57 -21 20
-44 7 -65 -37 -9 -17 -22 -32 -28 -32 -15 0 -18 36 -4 44 5 3 11 17 13 31 4
19 0 29 -15 37 -16 8 -22 8 -25 -1 -6 -18 -19 -13 -25 9 -3 13 -14 20 -29 20
-13 0 -29 5 -36 12 -9 9 -16 7 -32 -7 -13 -12 -20 -14 -20 -5 0 8 -9 11 -25 8
-13 -3 -22 -1 -19 3 8 14 -30 28 -49 18z m33 -52 l1 -32 15 28 c8 15 19 27 23
27 12 0 23 -29 15 -41 -3 -5 0 -9 5 -9 6 0 11 6 11 14 0 16 28 41 36 33 10
-10 -5 -70 -26 -105 -17 -28 -23 -32 -35 -22 -8 7 -15 22 -16 34 0 14 -2 16
-6 6 -10 -26 -24 -39 -37 -34 -18 7 -30 112 -15 130 16 20 29 8 29 -29z m170
-14 c-1 -41 -28 -108 -45 -112 -15 -3 -17 2 -12 35 7 57 24 94 42 94 8 0 15
-8 15 -17z m56 -16 c2 -7 -2 -30 -11 -50 -14 -33 -14 -38 0 -43 24 -9 18 -34
-8 -34 -27 0 -47 17 -47 40 1 24 38 100 50 100 6 0 13 -6 16 -13z m89 -37 c3
-5 -3 -27 -15 -49 -18 -37 -19 -41 -3 -49 10 -6 14 -16 10 -26 -6 -15 -9 -15
-37 -1 -34 18 -37 33 -14 78 28 55 45 69 59 47z m125 -86 c0 -12 -7 -14 -31
-9 -22 5 -29 4 -25 -4 4 -6 17 -11 29 -11 20 0 20 -1 2 -14 -10 -7 -27 -11
-37 -8 -10 2 -18 -1 -18 -7 0 -6 9 -11 21 -11 19 0 19 -1 5 -16 -17 -16 -47
-12 -65 9 -12 15 7 58 41 94 19 21 23 21 49 7 16 -8 29 -22 29 -30z m41 -60
c-10 -23 -10 -26 4 -20 8 3 22 9 30 12 9 4 17 -1 21 -10 6 -15 -42 -81 -73
-99 -22 -13 -28 22 -7 39 18 13 17 14 -9 8 -24 -5 -26 -4 -20 12 6 17 5 17
-11 5 -13 -11 -19 -12 -29 -2 -9 10 -2 22 36 58 35 33 51 43 59 35 8 -8 8 -19
-1 -38z m117 -84 c26 -24 28 -38 7 -47 -9 -3 -22 2 -31 13 -13 18 -14 17 -8
-9 13 -55 -51 -80 -82 -31 -13 20 -14 28 -5 37 10 9 15 8 25 -5 19 -25 26 -22
26 10 0 51 32 66 68 32z"/>
<path d="M1482 1915 c-75 -16 -153 -51 -219 -97 -33 -23 -63 -35 -98 -38 -41
-4 -52 -10 -64 -32 -14 -24 -14 -28 4 -48 17 -19 17 -24 5 -43 -63 -99 -100
-230 -100 -352 0 -109 18 -186 67 -283 38 -77 119 -162 194 -205 22 -12 42
-31 44 -42 12 -54 11 -59 -22 -66 -105 -22 -123 -111 -34 -162 47 -28 154 -27
212 1 24 12 44 20 45 19 1 -1 13 -58 27 -127 23 -110 30 -128 57 -152 56 -52
122 -29 141 47 12 47 29 52 29 9 0 -33 51 -84 83 -84 34 0 74 34 86 73 5 17
17 68 27 112 23 112 34 115 34 10 0 -162 23 -195 138 -195 78 0 121 16 134 49
10 26 10 26 20 5 15 -32 50 -44 126 -44 87 1 142 25 165 73 24 50 22 100 -7
134 -24 28 -24 29 -5 52 41 51 15 132 -54 168 -39 20 -142 21 -183 2 -50 -24
-59 -58 -59 -216 0 -78 -3 -133 -7 -123 -9 25 -39 40 -82 40 -25 0 -36 4 -36
15 0 10 10 15 28 15 44 0 72 26 72 65 0 39 -20 55 -69 55 -45 0 -38 16 10 23
22 3 49 13 60 23 25 23 24 69 -2 95 -20 20 -58 22 -209 9 -29 -3 -85 16 -84
28 1 7 2 22 3 33 1 20 5 21 48 16 27 -3 56 -1 65 4 11 6 25 6 36 0 21 -11 52
3 52 24 0 8 7 15 15 15 8 0 15 -6 15 -14 0 -7 6 -19 14 -25 18 -15 56 2 56 24
0 23 24 18 35 -7 9 -21 17 -23 80 -24 39 0 78 3 88 8 9 5 22 6 28 2 20 -12 88
-13 97 -1 5 7 10 36 10 65 1 73 -18 92 -93 90 -31 -1 -58 -5 -61 -10 -3 -5
-11 -5 -17 -1 -17 12 -210 12 -224 1 -28 -23 -21 17 16 84 72 132 81 215 53
494 -10 90 -33 156 -66 183 -9 8 -16 24 -16 37 0 31 -26 54 -60 54 -16 0 -50
13 -76 30 -160 101 -392 144 -572 105z m333 -35 c72 -18 207 -72 229 -92 6 -4
-170 -8 -390 -8 -366 1 -397 2 -379 16 32 26 135 72 195 88 83 22 250 20 345
-4z m-256 -126 c11 -10 -15 -12 -187 -15 -101 -2 -188 -7 -194 -10 -13 -8 132
-20 270 -22 l107 -2 3 -80 c2 -66 -1 -86 -18 -113 -28 -45 -98 -76 -154 -68
-100 15 -139 73 -134 194 3 72 -4 94 -16 47 l-6 -24 -36 21 c-19 11 -38 18
-41 14 -9 -8 -33 14 -33 30 0 8 7 14 15 14 8 0 15 4 15 9 0 6 19 11 43 13 56
4 361 -2 366 -8z m584 0 c9 -3 17 -15 17 -28 0 -17 -10 -25 -42 -37 -42 -16
-43 -16 -58 9 -13 21 -24 26 -75 29 -73 5 -94 4 -170 -6 -54 -8 -48 -9 65 -11
69 -1 134 -3 145 -4 18 -1 20 -8 20 -86 0 -99 -14 -127 -83 -161 -73 -36 -172
-6 -208 63 -22 42 -31 152 -14 173 9 10 9 15 1 15 -6 0 -11 -3 -11 -7 0 -5 -4
-14 -9 -22 -8 -12 -12 -11 -27 3 -13 14 -28 17 -57 13 -22 -3 -43 -11 -47 -17
-5 -8 -13 -1 -23 19 -13 26 -13 31 -1 31 8 0 14 7 14 15 0 11 12 15 50 15 30
0 50 -4 50 -11 0 -8 4 -8 13 -1 7 6 78 10 175 10 90 0 166 3 170 7 6 6 67 -1
105 -11z m66 -112 c49 -95 48 -177 0 -239 -35 -44 -38 -99 -9 -173 25 -63 25
-77 0 -90 -16 -8 -26 -6 -50 12 -44 32 -90 27 -156 -16 -29 -20 -56 -36 -58
-36 -2 0 -17 12 -33 28 -26 25 -28 29 -16 52 7 14 12 34 11 45 -4 26 -35 32
-42 7 -13 -40 -45 -62 -92 -62 -49 0 -89 -16 -118 -49 -25 -28 -51 -19 -95 31
-18 21 -50 48 -72 58 -69 36 -164 20 -206 -33 -19 -24 -23 -25 -52 -14 -25 9
-31 17 -31 42 0 42 -25 73 -76 95 -23 10 -50 31 -60 45 -15 23 -16 34 -6 88 6
34 29 97 51 142 56 114 54 112 85 91 20 -13 26 -25 26 -54 0 -57 18 -109 51
-146 29 -33 102 -71 118 -61 5 2 14 -9 21 -26 7 -16 36 -50 64 -75 121 -106
287 -113 344 -14 11 18 35 37 66 50 43 18 48 22 42 45 -6 22 -3 25 22 25 38 0
105 49 125 93 9 19 17 55 17 79 0 53 21 85 63 96 40 11 43 9 66 -36z m-519 19
c12 -23 13 -71 2 -71 -4 0 -13 5 -19 11 -15 15 -49 -4 -58 -31 -3 -11 -11 -20
-16 -20 -12 0 0 100 14 118 15 19 65 15 77 -7z m-4 -103 c11 -13 25 -35 31
-49 14 -33 108 -113 148 -126 l30 -10 -37 -12 c-22 -7 -51 -29 -72 -55 -77
-94 -223 -75 -329 43 -44 48 -46 61 -12 61 41 0 76 24 145 99 36 39 68 71 71
71 3 0 14 -10 25 -22z m575 -340 c-8 -73 -38 -168 -53 -168 -19 0 -11 48 14
77 27 32 27 33 12 80 -32 101 -35 114 -28 136 4 12 16 34 28 50 l21 29 7 -64
c4 -34 4 -98 -1 -140z m-1146 52 c20 0 42 -33 47 -68 4 -27 0 -37 -21 -53 -14
-12 -33 -39 -42 -61 l-15 -40 -21 73 c-12 41 -24 102 -27 136 l-6 62 37 -24
c20 -14 41 -25 48 -25z m755 -80 c-7 -16 -18 -30 -26 -30 -10 0 -8 9 8 35 24
42 36 39 18 -5z m-404 -6 c45 -21 81 -65 96 -117 11 -39 12 -40 16 -14 2 21 8
27 20 23 189 -54 327 -41 425 40 85 72 190 -29 147 -141 -5 -14 -18 -28 -27
-31 -10 -3 -25 -9 -34 -14 -9 -4 -22 -4 -30 1 -28 17 -67 10 -88 -17 -19 -25
-21 -25 -21 -6 0 11 -8 23 -17 25 -33 8 -162 6 -168 -2 -7 -12 -55 11 -55 26
0 7 -9 17 -20 23 -17 9 -25 6 -51 -19 l-30 -31 -62 31 c-34 17 -64 33 -66 35
-2 2 7 12 20 23 29 24 23 26 -23 6 -43 -17 -83 -8 -151 35 -56 35 -77 71 -56
96 35 42 117 55 175 28z m-199 -95 c45 -47 125 -99 155 -99 7 0 37 -11 66 -25
53 -24 53 -25 34 -45 -25 -26 -120 -44 -197 -35 -71 7 -129 33 -173 76 -42 42
-45 102 -6 148 38 45 65 41 121 -20z m592 33 c19 -9 36 -22 38 -28 5 -17 -83
-27 -154 -19 -84 11 -94 19 -52 44 43 26 120 28 168 3z m-149 -172 c0 -6 -7
-13 -17 -17 -14 -5 -13 -8 5 -14 12 -5 29 -6 37 -2 11 4 19 -4 27 -25 l12 -31
13 29 c19 46 37 38 29 -12 -9 -53 -31 -89 -50 -82 -16 6 -36 55 -36 87 0 13
-5 17 -16 13 -9 -3 -20 -6 -25 -6 -5 0 -9 -4 -9 -10 0 -5 7 -10 16 -10 9 0 14
-6 11 -12 -2 -7 -10 -12 -16 -10 -21 4 -11 -16 10 -21 12 -3 19 -12 17 -19 -6
-18 -46 -22 -64 -8 -22 19 -18 96 7 131 20 28 49 39 49 19z m-102 -46 c25 -17
29 -60 9 -88 -9 -12 -23 -17 -47 -14 -32 3 -35 6 -38 37 -8 76 23 103 76 65z
m297 5 c4 -6 -2 -13 -14 -16 -24 -6 -28 -23 -6 -23 20 0 19 -19 -2 -27 -14 -5
-13 -8 5 -14 16 -6 21 -15 19 -31 -9 -57 -320 -76 -472 -28 -71 22 -201 88
-191 97 2 3 21 0 42 -7 37 -13 173 -9 207 5 14 6 17 2 17 -22 0 -56 43 -79
107 -59 12 4 24 2 28 -4 7 -12 144 -2 162 12 7 5 14 5 18 -2 3 -5 21 -9 38 -9
21 1 25 3 12 6 -35 9 -45 24 -45 73 0 29 5 50 13 53 22 9 56 7 62 -4z m45 -34
c0 -38 3 -45 20 -45 33 0 23 -26 -15 -37 -19 -6 -34 -8 -33 -4 1 3 -1 25 -5
49 -7 43 4 82 23 82 6 0 10 -20 10 -45z m128 33 c7 -7 12 -29 12 -49 0 -71
-75 -87 -94 -21 -16 57 44 108 82 70z m96 6 c10 -4 16 -18 16 -35 0 -22 -6
-32 -25 -39 -14 -5 -25 -16 -25 -25 0 -8 -6 -15 -14 -15 -17 0 -27 76 -14 103
9 17 34 22 62 11z m104 -6 c21 -21 14 -58 -13 -68 -14 -5 -25 -16 -25 -25 0
-8 -7 -15 -15 -15 -19 0 -31 65 -16 96 12 26 48 33 69 12z m100 -5 c2 -8 -5
-13 -17 -13 -12 0 -21 -4 -21 -10 0 -5 7 -10 15 -10 8 0 15 -7 15 -15 0 -9 -6
-12 -15 -9 -9 4 -15 0 -15 -9 0 -8 7 -14 16 -13 9 0 19 -4 21 -11 6 -18 -44
-28 -62 -13 -18 15 -20 91 -3 108 16 16 60 12 66 -5z m42 -23 c0 -16 5 -32 10
-35 6 -4 10 6 10 22 0 35 14 58 29 49 14 -9 14 -71 1 -95 -13 -25 -37 -33 -61
-21 -15 8 -19 22 -19 59 0 26 3 51 6 54 12 12 24 -4 24 -33z m141 30 c20 -11
26 -45 9 -55 -7 -4 -7 -12 0 -25 14 -25 13 -30 -5 -30 -9 0 -18 7 -22 16 -6
15 -7 15 -19 -1 -19 -26 -34 -9 -34 39 0 60 25 80 71 56z m-1136 -163 c28 -8
67 -18 88 -22 20 -3 37 -8 37 -11 0 -3 -9 -17 -20 -31 -11 -14 -20 -36 -20
-49 0 -38 -54 -68 -132 -72 -75 -5 -123 9 -139 40 -24 45 61 98 132 83 36 -8
38 7 4 29 -25 17 -36 62 -12 54 6 -3 35 -12 62 -21z m505 7 c0 -8 -13 -27 -29
-42 -33 -30 -51 -69 -51 -113 0 -16 -4 -29 -10 -29 -5 0 -10 13 -10 29 0 38
-35 81 -66 81 -13 0 -24 2 -24 4 0 2 -3 11 -6 19 -4 12 6 17 48 22 43 6 80 17
146 44 1 1 2 -6 2 -15z m-227 -59 c6 -12 5 -25 -3 -40 -7 -12 -15 -38 -19 -56
l-8 -34 -7 40 c-12 64 -24 85 -59 100 -32 15 -32 15 27 11 43 -3 62 -9 69 -21z
m-79 -27 c13 -22 17 -35 31 -120 8 -53 21 -47 35 15 16 69 35 97 65 97 30 0
49 -28 65 -97 13 -56 27 -68 34 -30 28 137 39 157 80 157 55 0 59 -45 15 -226
-32 -136 -46 -169 -78 -179 -43 -13 -74 22 -95 104 -6 25 -15 45 -21 44 -5 -1
-17 -30 -26 -64 -25 -90 -62 -111 -114 -66 -23 19 -30 43 -57 177 -35 179 -32
210 22 210 20 0 34 -7 44 -22z m607 12 c12 -7 19 -21 19 -39 0 -33 -31 -51
-86 -51 -33 0 -35 -2 -32 -27 2 -21 9 -29 28 -31 59 -6 70 -12 70 -37 0 -28
-12 -37 -60 -45 -31 -5 -35 -9 -35 -35 0 -28 3 -30 48 -35 125 -15 88 -100
-44 -100 -100 0 -117 26 -119 190 -3 162 -2 169 25 195 21 22 33 25 95 25 39
0 80 -5 91 -10z m305 -24 c40 -40 45 -80 14 -119 -25 -32 -25 -33 5 -69 44
-53 28 -126 -37 -159 -41 -21 -138 -26 -182 -9 -37 14 -49 71 -44 218 3 121 4
124 31 148 24 21 38 24 104 24 72 0 76 -1 109 -34z"/>
<path d="M1595 1851 c-12 -5 -27 -16 -34 -25 -11 -13 -11 -17 2 -22 9 -3 24
-1 36 5 11 6 36 11 56 11 29 0 36 3 33 18 -4 19 -59 27 -93 13z"/>
<path d="M1409 1597 c-15 -34 -30 -73 -34 -87 -7 -22 -6 -23 9 -11 10 9 16 10
16 2 0 -30 19 -4 43 57 40 102 40 102 29 102 -5 0 -17 -24 -26 -54 -10 -30
-25 -61 -34 -68 -15 -11 -15 -11 -4 3 7 9 12 21 10 25 -1 5 3 19 11 32 7 13
11 32 9 42 -2 13 -12 -3 -29 -43z"/>
<path d="M1600 1730 c-11 -7 -3 -10 30 -10 33 0 41 3 30 10 -8 5 -22 10 -30
10 -8 0 -22 -5 -30 -10z"/>
<path d="M1972 1653 c-6 -10 -11 -22 -12 -28 -4 -23 -10 -16 -10 10 0 17 -4
25 -8 20 -11 -13 -72 -167 -72 -180 1 -14 50 86 50 102 0 7 4 13 9 13 10 0 5
-34 -11 -67 -6 -11 -9 -26 -6 -33 2 -6 20 30 41 81 21 50 36 94 33 96 -2 3 -9
-4 -14 -14z"/>
<path d="M1813 1643 c-3 -10 -12 -33 -20 -52 -7 -19 -11 -36 -9 -39 5 -4 27
43 40 86 9 26 -2 30 -11 5z"/>
<path d="M2154 1543 c-9 -21 -27 -50 -40 -64 -27 -28 -24 -59 6 -59 24 0 76
61 85 100 7 30 -7 60 -27 60 -5 0 -16 -17 -24 -37z m36 -6 c0 -28 -46 -97 -65
-97 -21 0 -18 17 5 30 10 6 25 28 31 50 13 44 29 53 29 17z"/>
<path d="M1125 1506 c-9 -13 -17 -37 -18 -52 -2 -23 3 -30 19 -32 17 -2 24 6
38 42 10 25 15 50 11 56 -11 17 -34 11 -50 -14z m34 -3 c0 -5 -6 -24 -13 -42
-8 -24 -15 -31 -20 -22 -9 14 12 71 25 71 5 0 9 -3 8 -7z"/>
<path d="M2036 1418 c4 -20 1 -29 -16 -38 -12 -6 -29 -9 -38 -5 -13 5 -14 3
-5 -6 16 -16 60 -3 68 21 3 11 1 28 -5 37 -8 15 -9 13 -4 -9z"/>
<path d="M1184 1327 c-14 -38 64 -118 102 -103 24 9 16 34 -15 44 -16 6 -35
23 -43 38 -15 32 -36 42 -44 21z m79 -73 l32 -15 -30 6 c-33 6 -65 38 -65 64
1 10 6 6 16 -12 9 -16 30 -35 47 -43z"/>
<path d="M2087 1280 c-16 -12 -40 -20 -65 -20 -45 0 -60 -13 -42 -35 26 -32
138 -6 161 37 21 39 -13 50 -54 18z m33 -15 c-7 -8 -19 -15 -26 -15 -8 0 -14
-4 -14 -10 0 -5 -21 -10 -47 -9 l-48 1 45 9 c25 5 56 17 70 28 28 21 39 19 20
-4z"/>
<path d="M1678 1367 c-32 -26 -46 -30 -90 -30 -37 1 -47 -1 -33 -7 59 -25 175
5 175 44 0 26 -14 24 -52 -7z"/>
<path d="M1195 1028 c8 -29 64 -80 104 -95 36 -13 42 -1 7 15 -35 16 -96 72
-96 88 0 8 -5 14 -11 14 -6 0 -8 -9 -4 -22z"/>
<path d="M2400 564 c0 -21 4 -25 23 -22 14 2 23 11 25 26 3 18 -1 22 -22 22
-21 0 -26 -5 -26 -26z"/>
<path d="M2400 415 c0 -23 4 -26 28 -23 19 2 27 9 27 23 0 14 -8 21 -27 23
-24 3 -28 0 -28 -23z"/>
<path d="M782 1338 c-19 -19 -14 -28 13 -28 27 0 32 12 12 29 -10 8 -17 7 -25
-1z"/>
</g>
</svg>
